<svg width="512" height="512" viewBox="0 0 512 512" xmlns="http://www.w3.org/2000/svg">
  <defs>
    <linearGradient id="grad1" x1="0%" y1="0%" x2="100%" y2="100%">
      <stop offset="0%" style="stop-color:#34D399"/>
      <stop offset="100%" style="stop-color:#059669"/>
    </linearGradient>
  </defs>
  
  <!-- Background -->
  <rect width="512" height="512" rx="96" fill="url(#grad1)"/>
  
  <!-- Stylized H letterform - vertical bars only -->
  <path d="M152,140 L152,372" 
        stroke="#FFFFFF" stroke-width="48" stroke-linecap="round" fill="none"/>
  <path d="M360,140 L360,372" 
        stroke="#FFFFFF" stroke-width="48" stroke-linecap="round" fill="none"/>
  
  <!-- Leaf as the H crossbar -->
  <path d="M152,256 C180,220 220,200 256,180 C292,200 332,220 360,256 C332,280 292,300 256,320 C220,300 180,280 152,256 Z" fill="#FFFFFF"/>
  <!-- Leaf center vein -->
  <path d="M152,256 L360,256" stroke="#059669" stroke-width="5" fill="none" stroke-linecap="round"/>
  <!-- Leaf side veins -->
  <path d="M200,256 Q220,230 256,200" stroke="#059669" stroke-width="3" fill="none" stroke-linecap="round" opacity="0.7"/>
  <path d="M200,256 Q220,280 256,310" stroke="#059669" stroke-width="3" fill="none" stroke-linecap="round" opacity="0.7"/>
  <path d="M310,256 Q290,230 256,200" stroke="#059669" stroke-width="3" fill="none" stroke-linecap="round" opacity="0.7"/>
  <path d="M310,256 Q290,280 256,310" stroke="#059669" stroke-width="3" fill="none" stroke-linecap="round" opacity="0.7"/>
</svg>
